<?xml version="1.0" standalone="no"?>
<!DOCTYPE svg PUBLIC "-//W3C//DTD SVG 20010904//EN"
 "http://www.w3.org/TR/2001/REC-SVG-20010904/DTD/svg10.dtd">
<svg version="1.0" xmlns="http://www.w3.org/2000/svg"
 width="700.000000pt" height="700.000000pt" viewBox="0 0 700.000000 700.000000"
 preserveAspectRatio="xMidYMid meet">
<metadata>
Created by potrace 1.11, written by Peter Selinger 2001-2013
</metadata>
<g transform="translate(0.000000,700.000000) scale(0.100000,-0.100000)"
fill="#000000" stroke="none">
<path d="M3250 6994 c-905 -81 -1650 -431 -2265 -1065 -422 -435 -717 -958
-870 -1544 -82 -313 -109 -533 -109 -885 0 -285 10 -401 55 -645 157 -853 642
-1631 1349 -2161 1032 -775 2419 -913 3588 -358 361 171 654 377 950 668 580
569 918 1257 1029 2091 24 182 24 628 0 810 -106 801 -424 1470 -962 2024
-571 588 -1275 942 -2085 1047 -119 15 -574 27 -680 18z m640 -140 c531 -61
1031 -245 1488 -548 l122 -81 0 -1161 c0 -1130 -1 -1161 -19 -1178 -28 -26
-99 -172 -116 -241 -19 -76 -19 -214 0 -290 17 -69 88 -215 116 -241 18 -17
19 -48 19 -1178 l0 -1161 -122 -81 c-161 -106 -217 -139 -373 -217 -472 -236
-964 -351 -1505 -351 -541 0 -1033 115 -1505 351 -156 78 -212 111 -372 217
l-123 81 0 1161 c0 1130 1 1161 19 1178 28 26 99 172 116 241 8 32 15 98 15
145 0 47 -7 113 -15 145 -17 69 -88 215 -116 241 -18 17 -19 48 -19 1178 l0
1161 123 81 c512 340 1083 531 1697 568 118 7 433 -4 570 -20z"/>
<path d="M3640 6374 c-59 -33 -93 -66 -145 -139 -143 -201 -235 -504 -238
-782 l-1 -123 -673 0 c-666 0 -673 0 -673 -20 0 -20 7 -20 674 -20 l674 0 6
-27 c3 -16 7 -46 10 -68 3 -22 24 -156 47 -298 l42 -258 -64 -65 -63 -64 -663
0 -663 0 0 -25 0 -25 641 0 641 0 -112 -117 c-205 -216 -377 -443 -455 -601
l-30 -61 -342 -1 -343 0 0 -25 0 -25 331 0 c312 0 331 -1 324 -17 -19 -44 -56
-183 -66 -247 -15 -91 -5 -361 15 -441 8 -33 15 -63 16 -67 0 -5 -139 -8 -310
-8 -303 0 -310 0 -310 -20 0 -19 8 -20 316 -22 l316 -3 28 -75 c128 -352 382
-593 713 -680 l72 -19 -722 0 -723 -1 0 -25 0 -25 985 0 c542 0 985 -3 985 -6
0 -3 15 -99 34 -212 79 -478 79 -608 -5 -746 -43 -72 -131 -144 -213 -175
-161 -60 -348 -23 -401 80 -9 17 -15 32 -13 34 2 1 26 10 55 19 121 40 203
149 203 271 0 34 -5 77 -12 96 -68 200 -323 268 -482 128 -86 -76 -119 -160
-120 -309 -1 -85 2 -101 27 -152 83 -170 319 -303 558 -315 188 -10 321 30
424 127 113 108 164 230 172 418 3 63 1 152 -6 205 -11 87 -76 466 -88 514
l-5 23 541 0 541 0 0 25 0 25 -544 0 -544 0 -6 26 c-4 15 -6 28 -4 29 2 1 32
17 68 35 246 123 403 337 442 604 l12 86 288 0 c281 0 288 1 288 20 0 19 -8
20 -287 22 l-288 3 -6 75 c-28 325 -213 586 -478 677 l-66 22 563 1 562 0 0
25 0 25 -715 0 c-393 0 -715 2 -715 4 0 2 -23 115 -50 251 l-50 247 57 62 c32
34 85 97 118 139 l60 77 648 0 647 0 0 25 0 25 -631 0 -631 0 20 33 c115 188
200 447 227 690 l6 57 505 0 c497 0 504 0 504 20 0 20 -7 20 -502 20 l-503 0
-1 178 c-2 268 -33 455 -108 639 -90 220 -208 300 -336 227z m229 -509 c51
-43 66 -102 65 -250 0 -110 -4 -142 -25 -205 l-25 -75 -217 -3 -217 -2 0 28
c0 42 47 198 84 277 97 206 243 307 335 230z m-9 -582 c0 -19 -103 -185 -166
-269 -86 -114 -223 -266 -233 -260 -25 16 -50 466 -29 519 7 15 27 17 218 17
115 0 210 -3 210 -7z m-356 -1380 c20 -104 39 -196 42 -205 5 -17 -12 -18
-262 -18 l-268 0 44 46 c56 58 393 363 401 364 3 0 23 -84 43 -187z m56 -293
c0 -14 -17 -28 -61 -50 -169 -83 -311 -242 -371 -413 -16 -46 -23 -93 -26
-180 l-4 -117 -177 2 -176 3 1 160 c1 142 4 170 28 250 31 102 90 222 153 306
l43 59 295 0 c287 0 295 -1 295 -20z m310 -364 c128 -34 235 -127 299 -260 22
-44 42 -93 45 -108 l6 -28 -189 0 c-104 0 -192 4 -195 9 -4 7 -86 384 -86 397
0 9 70 3 120 -10z m-201 -178 c18 -95 35 -183 38 -195 l5 -23 -187 0 -188 0 6
53 c9 69 66 182 119 234 41 40 140 102 164 103 6 0 25 -77 43 -172z m-525
-323 c59 -135 177 -253 338 -336 66 -33 76 -35 85 -14 4 11 -13 35 -51 71 -81
80 -139 177 -166 279 -17 69 -28 65 180 65 105 0 190 -1 190 -2 0 -2 27 -140
60 -308 33 -168 60 -310 60 -316 0 -36 -298 -56 -431 -29 -349 70 -576 288
-653 628 l-6 27 183 0 183 0 28 -65z m1090 28 c21 -129 -31 -310 -120 -419
-34 -41 -143 -129 -150 -121 -2 2 -30 132 -63 290 l-59 287 193 0 192 0 7 -37z
m-364 -733 c0 -5 -19 -9 -42 -9 -40 1 -41 2 -13 9 44 11 55 11 55 0z"/>
</g>
</svg>
